<?xml version="1.0" encoding="UTF-8"?>
<!-- Generator: visioncortex VTracer 0.6.3 -->
<svg version="1.1" xmlns="http://www.w3.org/2000/svg" width="1280" height="1280">
<path d="M0 0 C422.4 0 844.8 0 1280 0 C1280 422.4 1280 844.8 1280 1280 C857.6 1280 435.2 1280 0 1280 C0 857.6 0 435.2 0 0 Z " fill="#FDFDFD" transform="translate(0,0)"/>
<path d="M0 0 C0.98 -0 0.98 -0 1.98 -0.01 C5.46 -0.02 8.94 -0.03 12.42 -0.04 C15.24 -0.04 18.05 -0.06 20.87 -0.08 C38.82 -0.22 56.32 0.55 74.12 3.2 C76.11 3.49 78.11 3.77 80.1 4.05 C122.41 10.14 164.03 23.98 202.12 43.2 C202.94 43.61 203.77 44.02 204.62 44.45 C220.48 52.39 236.04 61.4 250.12 72.2 C251.37 73.14 252.63 74.07 253.88 75.01 C257.31 77.56 260.73 80.14 264.15 82.72 C266.01 84.12 267.88 85.52 269.75 86.91 C275.3 91.08 280.5 95.33 285.3 100.34 C287.74 102.83 290.35 105.08 292.98 107.36 C301.59 114.8 309.81 122.42 317.24 131.04 C319.31 133.42 321.43 135.75 323.56 138.08 C347.3 164.49 366.92 195.38 382.22 227.34 C383.19 229.35 384.19 231.35 385.2 233.34 C385.55 234.04 385.9 234.74 386.27 235.46 C386.93 236.76 387.59 238.06 388.25 239.36 C409.03 280.74 419.58 327.22 423.12 373.2 C423.18 373.91 423.23 374.62 423.29 375.34 C428.78 447.58 416.23 520.65 383.12 585.2 C382.24 586.96 381.36 588.71 380.48 590.46 C369.87 611.41 358 631.68 343.62 650.26 C342.26 652.02 340.94 653.81 339.64 655.61 C334.74 662.35 329.38 668.51 323.67 674.56 C322.01 676.32 320.37 678.09 318.73 679.87 C300.28 699.83 300.28 699.83 290.28 708.32 C288.06 710.26 285.93 712.27 283.8 714.3 C276.37 721.33 268.44 727.51 260.24 733.61 C258.22 735.13 256.24 736.67 254.25 738.23 C244.38 745.95 233.91 752.35 223.02 758.55 C220.96 759.73 218.9 760.92 216.85 762.12 C208.52 766.99 200.03 771.34 191.25 775.33 C190.55 775.64 189.86 775.96 189.14 776.28 C148.37 794.67 106.9 804.38 62.75 810.38 C59 810.87 59 810.87 55.31 811.73 C52.36 812.37 49.54 812.35 46.51 812.38 C45.53 812.39 45.53 812.39 44.53 812.4 C42.35 812.42 40.18 812.43 38.01 812.44 C36.88 812.45 36.88 812.45 35.73 812.45 C31.74 812.47 27.74 812.49 23.75 812.5 C20.49 812.51 17.23 812.53 13.97 812.56 C-3.89 812.73 -20.95 812.54 -38.49 808.68 C-42.67 807.84 -46.9 807.35 -51.13 806.83 C-59.38 805.71 -67.49 804.12 -75.63 802.33 C-76.69 802.1 -77.76 801.86 -78.85 801.62 C-93.58 798.28 -107.95 793.71 -122.19 788.7 C-122.91 788.45 -123.63 788.2 -124.38 787.94 C-139.36 782.65 -153.63 776.24 -167.88 769.2 C-168.86 768.73 -169.84 768.26 -170.85 767.77 C-178.69 763.95 -186.18 759.62 -193.63 755.08 C-194.24 754.71 -194.85 754.33 -195.48 753.95 C-204.75 748.3 -213.66 742.37 -222.15 735.59 C-223.94 734.16 -225.75 732.75 -227.56 731.34 C-231.02 728.65 -234.46 725.93 -237.88 723.2 C-238.89 722.4 -239.91 721.59 -240.95 720.76 C-245.62 717 -250.05 713.18 -254.22 708.87 C-255.94 707.14 -257.72 705.55 -259.57 703.95 C-269.13 695.66 -278.07 687.12 -286.53 677.7 C-287.72 676.38 -288.93 675.08 -290.14 673.79 C-333.03 627.65 -363.96 565.03 -378.82 504.14 C-378.98 503.46 -379.15 502.77 -379.32 502.07 C-382.23 490.06 -384.43 477.97 -386.32 465.77 C-386.44 464.97 -386.57 464.17 -386.7 463.34 C-389.48 445.42 -390.05 427.67 -390.01 409.55 C-390 406.64 -390.01 403.73 -390.02 400.81 C-390.02 383.29 -389.08 366.27 -386.38 348.95 C-386.25 348.12 -386.12 347.29 -385.99 346.43 C-379.59 305.69 -367.92 266.21 -349.04 229.45 C-348.23 227.89 -347.44 226.33 -346.64 224.77 C-335.21 202.33 -322.25 181.22 -307.23 161.02 C-305.95 159.3 -304.68 157.56 -303.42 155.83 C-299.81 150.9 -296.23 146.32 -291.78 142.13 C-289.61 139.93 -287.74 137.58 -285.82 135.16 C-281 129.22 -275.76 123.82 -270.32 118.45 C-269.42 117.56 -268.53 116.67 -267.61 115.75 C-263.05 111.22 -258.43 106.84 -253.56 102.65 C-251.5 100.88 -249.54 99.01 -247.57 97.14 C-241.28 91.46 -234.4 86.59 -227.54 81.62 C-224.81 79.63 -222.1 77.62 -219.46 75.5 C-210.93 68.66 -201.83 63.15 -192.38 57.67 C-190.09 56.33 -187.83 54.95 -185.57 53.56 C-153.61 34.07 -118.84 21.91 -82.88 12.2 C-81.82 11.91 -80.76 11.63 -79.66 11.33 C-61.32 6.44 -42.7 3.53 -23.88 1.2 C-23.15 1.11 -22.42 1.02 -21.67 0.93 C-14.45 0.11 -7.26 0.02 0 0 Z " fill="#FB5857" transform="translate(621.87890625,182.796875)"/>
<path d="M0 0 C1.02 -0.02 2.04 -0.03 3.1 -0.05 C6.28 0.36 7.67 1.08 9.94 3.31 C9.94 3.97 9.94 4.63 9.94 5.31 C10.6 5.31 11.26 5.31 11.94 5.31 C11.94 5.97 11.94 6.63 11.94 7.31 C12.6 7.31 13.26 7.31 13.94 7.31 C13.71 6.71 13.48 6.12 13.25 5.5 C12.94 3.31 12.94 3.31 14.14 1.7 C16.38 -0.03 17.55 -0.05 20.35 -0.02 C21.62 -0.01 21.62 -0.01 22.91 0 C24.22 0.03 24.22 0.03 25.56 0.06 C26.45 0.07 27.33 0.07 28.24 0.08 C34.78 0.16 34.78 0.16 35.94 1.31 C36.05 4.06 36.11 6.79 36.11 9.54 C36.12 10.84 36.12 10.84 36.13 12.16 C36.15 15.03 36.17 17.91 36.18 20.78 C36.18 21.76 36.18 22.74 36.19 23.75 C36.21 28.95 36.22 34.15 36.23 39.35 C36.24 44.7 36.28 50.06 36.32 55.42 C36.34 59.55 36.35 63.67 36.36 67.8 C36.36 69.78 36.37 71.75 36.39 73.72 C36.42 76.5 36.41 79.27 36.41 82.04 C36.42 82.85 36.43 83.66 36.45 84.49 C36.38 91.37 34.38 97.24 30.08 102.65 C29.45 103.18 28.83 103.71 28.19 104.25 C27.57 104.8 26.96 105.34 26.33 105.9 C20.05 109.61 13.15 109.64 6.06 109.56 C5.18 109.56 4.3 109.55 3.39 109.55 C-2.61 109.46 -8.29 109.05 -14.06 107.31 C-15.07 107.04 -16.08 106.78 -17.12 106.5 C-19.06 105.31 -19.06 105.31 -19.87 103.07 C-20.12 99.48 -19.08 97.99 -17.12 95 C-16.28 93.68 -16.28 93.68 -15.41 92.32 C-14.97 91.66 -14.52 91 -14.06 90.31 C-10.59 90.77 -7.39 91.2 -4.06 92.31 C-1.9 92.48 0.27 92.58 2.44 92.62 C4.15 92.68 4.15 92.68 5.91 92.74 C9 92.61 9 92.61 10.8 90.53 C12.34 87.52 12.62 84.65 12.94 81.31 C11.95 80.82 11.95 80.82 10.94 80.31 C10.61 81.3 10.28 82.29 9.94 83.31 C5.03 86.7 -1.41 86.09 -7.06 85.31 C-12.08 82.99 -15.83 79.4 -18.06 74.31 C-20.13 68.41 -20.38 63.03 -20.4 56.8 C-20.41 55.8 -20.41 54.8 -20.42 53.77 C-20.43 51.65 -20.43 49.53 -20.43 47.42 C-20.44 44.22 -20.47 41.02 -20.51 37.82 C-20.65 11.92 -20.65 11.92 -13.62 4.12 C-9.16 0.97 -5.45 0.02 0 0 Z " fill="#FCFCFC" transform="translate(531.0625,502.6875)"/>
<path d="M0 0 C1.19 -0 2.38 -0 3.6 -0 C5.48 0 5.48 0 7.39 0.01 C8.62 0 9.86 0 11.13 -0 C12.92 -0 12.92 -0 14.75 0 C15.84 0 16.93 0 18.06 0 C20.85 0.12 23.36 0.5 26.07 1.13 C27.51 7.02 28.49 12.79 29.02 18.83 C29.1 19.65 29.17 20.47 29.25 21.31 C29.5 23.98 29.74 26.65 29.98 29.32 C30.16 31.2 30.33 33.07 30.51 34.95 C30.96 39.86 31.41 44.77 31.86 49.69 C32.49 56.61 33.14 63.53 33.78 70.46 C34.12 74.14 34.46 77.82 34.79 81.5 C34.95 83.19 35.1 84.88 35.26 86.56 C35.36 87.69 35.36 87.69 35.46 88.84 C35.78 92.28 36.15 95.69 36.63 99.11 C37.11 103.42 37.07 107.79 37.07 112.13 C30.47 112.13 23.87 112.13 17.07 112.13 C15.71 107.37 14.8 103.94 14.45 99.2 C14.37 98.24 14.3 97.28 14.22 96.29 C14.17 95.58 14.12 94.87 14.07 94.13 C12.26 94.27 10.45 94.42 8.64 94.57 C7.63 94.65 6.62 94.73 5.58 94.82 C3.14 94.86 3.14 94.86 2.07 96.13 C1.67 98.82 1.32 101.5 1.01 104.2 C0.92 104.95 0.83 105.71 0.74 106.49 C0.51 108.37 0.29 110.25 0.07 112.13 C-3.24 112.16 -6.55 112.18 -9.86 112.2 C-10.81 112.2 -11.75 112.21 -12.73 112.22 C-14.08 112.23 -14.08 112.23 -15.45 112.23 C-16.29 112.24 -17.12 112.24 -17.98 112.25 C-19.93 112.13 -19.93 112.13 -20.93 111.13 C-20.97 109.7 -20.94 108.26 -20.88 106.82 C-20.84 105.92 -20.8 105.02 -20.76 104.09 C-20.71 103.11 -20.66 102.14 -20.61 101.13 C-20.56 100.12 -20.52 99.11 -20.47 98.07 C-20.14 91.82 -19.61 85.66 -18.8 79.45 C-17.77 71.39 -17.12 63.29 -16.43 55.2 C-15.59 45.41 -14.74 35.64 -13.55 25.89 C-13.15 22.55 -12.86 19.23 -12.72 15.87 C-12.69 15.18 -12.66 14.49 -12.63 13.77 C-12.56 11.91 -12.51 10.04 -12.46 8.17 C-11.82 4.54 -10.78 3.39 -7.93 1.13 C-5.21 -0.23 -3.04 0 0 0 Z " fill="#FDFDFD" transform="translate(402.92578125,485.8671875)"/>
<path d="M0 0 C4.85 3.92 7.56 8.95 9 15 C9.35 19.51 9.28 23.98 9.19 28.5 C9.17 30.31 9.17 30.31 9.15 32.15 C9.11 35.1 9.06 38.05 9 41 C5.52 41.03 2.04 41.05 -1.44 41.06 C-2.93 41.08 -2.93 41.08 -4.45 41.09 C-5.86 41.09 -5.86 41.09 -7.31 41.1 C-8.18 41.1 -9.06 41.11 -9.96 41.11 C-12 41 -12 41 -13 40 C-13.13 38.55 -13.2 37.09 -13.25 35.63 C-13.28 34.75 -13.31 33.86 -13.35 32.95 C-13.41 31.07 -13.46 29.2 -13.52 27.32 C-13.55 26.44 -13.59 25.55 -13.62 24.63 C-13.65 23.82 -13.67 23 -13.7 22.16 C-13.88 19.71 -13.88 19.71 -16 17 C-19.73 18.12 -19.73 18.12 -22 21 C-22.11 23.02 -22.15 25.05 -22.16 27.07 C-22.17 28.35 -22.18 29.62 -22.19 30.93 C-22.2 32.33 -22.2 33.73 -22.2 35.12 C-22.21 36.55 -22.21 37.98 -22.22 39.41 C-22.23 42.4 -22.24 45.39 -22.24 48.38 C-22.25 52.23 -22.27 56.07 -22.3 59.91 C-22.32 62.85 -22.32 65.8 -22.32 68.75 C-22.33 70.16 -22.33 71.58 -22.35 73 C-22.36 74.97 -22.36 76.95 -22.36 78.93 C-22.36 80.06 -22.36 81.18 -22.37 82.34 C-22.19 83.66 -22.19 83.66 -22 85 C-19.22 87.33 -19.22 87.33 -16.31 86.62 C-15.17 86.32 -15.17 86.32 -14 86 C-13.99 85.29 -13.97 84.58 -13.96 83.84 C-13.88 80.62 -13.78 77.41 -13.69 74.19 C-13.66 73.07 -13.64 71.95 -13.62 70.79 C-13.58 69.72 -13.55 68.65 -13.51 67.54 C-13.47 66.06 -13.47 66.06 -13.43 64.54 C-13 62 -13 62 -11.73 60.17 C-9.59 58.72 -8.38 58.64 -5.8 58.67 C-5.01 58.68 -4.21 58.68 -3.39 58.69 C-2.14 58.72 -2.14 58.72 -0.88 58.75 C-0.04 58.76 0.8 58.76 1.66 58.77 C7.85 58.85 7.85 58.85 9 60 C9.27 64.41 9.27 68.83 9.3 73.25 C9.31 75.46 9.36 77.67 9.4 79.88 C9.5 88.44 9.3 96.14 3.35 102.86 C-3.18 109.28 -11.29 109.44 -19.99 109.44 C-28.47 109.17 -34.16 106.27 -39.94 100.19 C-46.88 92.18 -46.45 82.94 -46.4 72.91 C-46.4 71.45 -46.4 69.98 -46.41 68.51 C-46.41 65.45 -46.41 62.38 -46.39 59.32 C-46.37 55.42 -46.38 51.52 -46.4 47.61 C-46.41 44.59 -46.41 41.56 -46.4 38.53 C-46.4 37.1 -46.4 35.66 -46.41 34.22 C-46.45 22.7 -45.84 12.1 -37.47 3.41 C-27.13 -6.2 -12.25 -6.82 0 0 Z " fill="#100606" transform="translate(514,608)"/>
<path d="M0 0 C8.05 -0.35 15.73 1.82 21.89 7.15 C27.29 14.64 29.02 20.3 29 29.51 C29 30.24 29 30.96 29 31.7 C29 34.08 28.99 36.45 28.98 38.83 C28.98 40.48 28.98 42.13 28.98 43.78 C28.98 48.12 28.97 52.46 28.96 56.8 C28.95 61.23 28.94 65.66 28.94 70.09 C28.92 78.78 28.91 87.47 28.89 96.15 C25.24 96.18 21.6 96.2 17.95 96.21 C16.39 96.23 16.39 96.23 14.79 96.24 C13.31 96.25 13.31 96.25 11.8 96.25 C10.42 96.26 10.42 96.26 9.02 96.27 C6.89 96.15 6.89 96.15 5.89 95.15 C5.85 93.49 5.84 91.82 5.89 90.15 C5.16 90.78 5.16 90.78 4.43 91.43 C3.79 91.98 3.16 92.53 2.51 93.09 C1.89 93.64 1.26 94.18 0.61 94.74 C-3.7 98.27 -8.79 97.67 -14.11 97.15 C-19.46 95.44 -22.52 92.05 -25.11 87.15 C-28.85 76.49 -29.2 61.7 -24.47 51.34 C-18.73 42.1 -9.01 39.26 0.89 36.15 C2.55 35.78 4.21 35.43 5.89 35.15 C5.63 32.88 5.36 30.61 5.07 28.34 C4.92 27.08 4.77 25.81 4.62 24.51 C3.91 21.24 3.52 20.09 0.89 18.15 C-3.22 21.46 -3.55 24.03 -4.11 29.15 C-7.59 29.18 -11.07 29.2 -14.55 29.21 C-16.04 29.23 -16.04 29.23 -17.56 29.24 C-18.5 29.24 -19.45 29.25 -20.42 29.25 C-21.73 29.26 -21.73 29.26 -23.07 29.27 C-25.11 29.15 -25.11 29.15 -26.11 28.15 C-26.72 21.07 -25 14.55 -21.55 8.34 C-15.26 2.69 -8.28 0.6 0 0 Z " fill="#100606" transform="translate(664.11328125,619.84765625)"/>
<path d="M0 0 C0.85 0.01 1.7 0.02 2.57 0.03 C3.45 0.05 4.33 0.08 5.24 0.11 C6.13 0.12 7.02 0.13 7.94 0.15 C10.15 0.18 12.35 0.23 14.55 0.29 C15.21 1.94 15.87 3.59 16.55 5.29 C19.49 4.84 20.74 4.14 23.11 2.23 C27.95 -0.5 32.11 -0.5 37.55 0.29 C42.45 2.61 45.07 5.5 47.55 10.29 C50.34 19.14 49.81 28.51 49.75 37.68 C49.74 39.34 49.74 41.01 49.74 42.68 C49.73 47.03 49.71 51.39 49.69 55.75 C49.67 60.2 49.66 64.66 49.65 69.12 C49.63 77.85 49.59 86.57 49.55 95.29 C45.9 95.32 42.26 95.34 38.61 95.36 C37.05 95.37 37.05 95.37 35.46 95.38 C33.97 95.39 33.97 95.39 32.46 95.39 C31.09 95.4 31.09 95.4 29.68 95.41 C27.55 95.29 27.55 95.29 26.55 94.29 C26.44 92.04 26.39 89.78 26.38 87.53 C26.37 86.82 26.36 86.11 26.36 85.38 C26.34 83.84 26.33 82.3 26.32 80.76 C26.3 78.32 26.28 75.89 26.26 73.45 C26.19 66.52 26.13 59.58 26.07 52.65 C26.04 48.42 26 44.18 25.95 39.95 C25.94 38.33 25.93 36.72 25.92 35.1 C25.9 32.84 25.88 30.58 25.85 28.32 C25.84 27.03 25.83 25.74 25.82 24.42 C25.79 21.13 25.79 21.13 23.55 18.29 C21.57 18.62 19.59 18.95 17.55 19.29 C16.59 23.36 16.4 27.2 16.35 31.38 C16.33 32.42 16.33 32.42 16.32 33.48 C16.28 35.76 16.26 38.03 16.23 40.31 C16.21 41.9 16.19 43.48 16.17 45.07 C16.12 49.23 16.07 53.39 16.02 57.55 C15.97 61.8 15.91 66.05 15.86 70.3 C15.75 78.63 15.65 86.96 15.55 95.29 C12.09 95.32 8.63 95.34 5.18 95.36 C4.19 95.36 3.21 95.37 2.19 95.38 C0.78 95.39 0.78 95.39 -0.66 95.39 C-1.53 95.4 -2.4 95.4 -3.29 95.41 C-5.45 95.29 -5.45 95.29 -7.45 94.29 C-7.52 82.48 -7.57 70.67 -7.6 58.85 C-7.62 53.37 -7.64 47.88 -7.68 42.4 C-7.71 37.11 -7.73 31.82 -7.73 26.53 C-7.74 24.51 -7.75 22.48 -7.77 20.46 C-7.79 17.64 -7.79 14.81 -7.79 11.99 C-7.8 11.15 -7.81 10.31 -7.82 9.44 C-7.79 3.72 -7.79 3.72 -6.06 1.58 C-3.94 -0.12 -2.69 -0.05 0 0 Z " fill="#FDFDFD" transform="translate(453.44921875,502.70703125)"/>
<path d="M0 0 C6.01 6.48 8.27 12.48 8.2 21.37 C8.19 22.05 8.19 22.73 8.19 23.43 C8.18 25.58 8.15 27.73 8.12 29.88 C8.11 31.34 8.11 32.81 8.1 34.27 C8.08 37.85 8.04 41.42 8 45 C-1.9 45.33 -11.8 45.66 -22 46 C-24.68 55.37 -24.25 63.43 -23 73 C-20.67 73.04 -18.33 73.04 -16 73 C-13.87 70.87 -14.65 65.56 -14.57 62.55 C-14.33 57.45 -14.33 57.45 -12.73 55.3 C-10.57 53.68 -9.45 53.65 -6.77 53.71 C-5.97 53.72 -5.16 53.73 -4.34 53.74 C-3.5 53.76 -2.67 53.79 -1.81 53.81 C-0.55 53.83 -0.55 53.83 0.75 53.85 C2.83 53.89 4.92 53.94 7 54 C10.02 60.04 8.55 71.19 6.88 77.56 C4.92 82.94 2.15 87.04 -2.76 90.09 C-7.97 92.3 -13.48 92.3 -19.06 92.38 C-19.82 92.39 -20.57 92.4 -21.35 92.42 C-28.5 92.36 -35.19 90.6 -40.62 85.63 C-50.16 74.38 -48.16 59.02 -48.13 45.2 C-48.13 42.44 -48.13 39.68 -48.14 36.92 C-48.14 35.13 -48.13 33.34 -48.13 31.56 C-48.13 30.75 -48.14 29.94 -48.14 29.1 C-48.06 10.48 -48.06 10.48 -41 3 C-29.37 -6.2 -12.77 -8.33 0 0 Z " fill="#100606" transform="translate(622,625)"/>
<path d="M0 0 C6.36 5.39 9.57 11.37 10.64 19.62 C11.17 28.14 11.51 36.92 10.88 45.44 C8.99 47.32 5.76 46.66 3.25 46.72 C2.26 46.75 2.26 46.75 1.24 46.77 C-1.6 46.85 -4.44 46.92 -7.29 46.99 C-9.36 47.04 -11.43 47.1 -13.5 47.16 C-15.37 47.2 -15.37 47.2 -17.27 47.25 C-20.02 47.12 -20.02 47.12 -21.12 48.44 C-21.21 50.36 -21.23 52.29 -21.22 54.22 C-21.22 55.98 -21.22 55.98 -21.21 57.77 C-21.2 59 -21.2 60.23 -21.19 61.5 C-21.18 62.74 -21.18 63.97 -21.17 65.24 C-21.16 68.31 -21.15 71.37 -21.12 74.44 C-18.8 74.82 -16.46 75.15 -14.12 75.44 C-11.93 73.24 -12.77 67.46 -12.7 64.34 C-12.46 58.88 -12.46 58.88 -10.86 56.73 C-8.73 55.14 -7.6 55.06 -4.96 55.07 C-4.17 55.07 -3.38 55.08 -2.56 55.08 C-1.74 55.09 -0.91 55.11 -0.06 55.12 C0.77 55.12 1.59 55.12 2.45 55.12 C8.61 55.17 8.61 55.17 10.88 57.44 C10.94 60 10.88 62.39 10.69 64.94 C10.63 65.66 10.58 66.38 10.53 67.12 C9.84 75.33 8.59 82.92 2.64 89.03 C-4.97 95.1 -15.92 94.13 -25.12 93.44 C-31.3 91.82 -36.68 88.86 -40.45 83.58 C-44.86 75.35 -45.43 66.57 -45.43 57.41 C-45.43 56.38 -45.43 55.35 -45.44 54.29 C-45.44 52.13 -45.45 49.96 -45.44 47.8 C-45.44 44.51 -45.46 41.23 -45.49 37.94 C-45.49 35.83 -45.49 33.71 -45.49 31.6 C-45.5 30.63 -45.51 29.66 -45.52 28.66 C-45.46 20.34 -44.09 11.78 -38.84 5.04 C-28.31 -4.8 -12.65 -6.33 0 0 Z " fill="#100606" transform="translate(876.125,623.5625)"/>
<path d="M0 0 C0.81 0 1.61 0.01 2.44 0.01 C3.7 0.02 3.7 0.02 4.99 0.04 C5.84 0.04 6.69 0.04 7.57 0.05 C9.67 0.06 11.77 0.08 13.87 0.1 C14.95 2.26 15.12 3.7 15.35 6.1 C15.43 6.92 15.51 7.75 15.59 8.6 C15.67 9.49 15.76 10.39 15.84 11.31 C15.93 12.24 16.01 13.16 16.1 14.12 C16.29 16.08 16.47 18.05 16.65 20.02 C16.93 22.99 17.21 25.97 17.49 28.94 C17.67 30.86 17.85 32.77 18.03 34.69 C18.11 35.57 18.2 36.44 18.28 37.35 C18.85 43.61 18.96 49.81 18.87 56.1 C19.53 56.1 20.19 56.1 20.87 56.1 C21.36 56.59 21.36 56.59 21.87 57.1 C21.83 56.1 21.79 55.1 21.75 54.08 C21.75 47.14 22.89 40.27 23.8 33.41 C24.17 30.64 24.54 27.86 24.89 25.09 C25.03 24.07 25.03 24.07 25.16 23.04 C25.86 17.62 26.22 12.22 26.43 6.76 C26.94 3.68 27.63 2.26 29.87 0.1 C31.83 -0.39 31.83 -0.39 34.03 -0.36 C35.22 -0.36 35.22 -0.36 36.43 -0.35 C37.26 -0.33 38.08 -0.3 38.93 -0.28 C39.76 -0.28 40.59 -0.27 41.44 -0.27 C47.59 -0.18 47.59 -0.18 49.87 2.1 C49.74 4.26 49.74 4.26 49.2 7.05 C49 8.13 48.8 9.22 48.59 10.33 C48.35 11.57 48.11 12.82 47.87 14.1 C47.47 16.27 47.09 18.44 46.7 20.62 C46.27 23.01 45.84 25.41 45.41 27.8 C41.97 46.77 41.97 46.77 38.74 65.79 C38.52 67.15 38.52 67.15 38.28 68.54 C37.61 72.59 36.94 76.65 36.3 80.71 C35.69 84.55 35.06 88.39 34.43 92.22 C34.25 93.42 34.07 94.61 33.88 95.84 C33.69 96.96 33.5 98.08 33.31 99.23 C33.15 100.22 32.99 101.21 32.83 102.23 C31.53 106.11 29.86 108.3 26.87 111.1 C23.49 111.79 23.49 111.79 19.67 111.72 C18.99 111.71 18.32 111.71 17.62 111.7 C15.47 111.67 13.33 111.6 11.18 111.54 C9.73 111.51 8.27 111.49 6.82 111.48 C-3.7 111.31 -3.7 111.31 -6.13 110.1 C-6.21 108.49 -6.27 106.89 -6.32 105.29 C-6.36 104.39 -6.39 103.5 -6.43 102.58 C-6.13 100.1 -6.13 100.1 -4.94 98.45 C-2.51 96.63 -0.95 96.79 2.05 96.91 C2.96 96.94 3.86 96.96 4.79 96.99 C5.82 97.04 5.82 97.04 6.87 97.1 C5.29 84.16 3.47 71.28 1.39 58.42 C1.28 57.75 1.17 57.07 1.06 56.38 C0.04 50.08 -0.99 43.79 -2.03 37.51 C-2.6 34.02 -3.17 30.53 -3.73 27.04 C-4.04 25.11 -4.36 23.18 -4.69 21.25 C-5.77 14.46 -6.43 7.97 -6.13 1.1 C-3.84 -0.05 -2.55 -0.02 0 0 Z " fill="#FDFDFD" transform="translate(625.1328125,502.90234375)"/>
<path d="M0 0 C0.83 0.01 1.65 0.02 2.51 0.03 C3.4 0.04 4.3 0.04 5.22 0.05 C6.63 0.08 6.63 0.08 8.06 0.1 C9.01 0.11 9.95 0.12 10.93 0.13 C13.26 0.15 15.6 0.19 17.94 0.23 C19.62 3.6 19.51 7.42 19.84 11.14 C20.01 12.95 20.18 14.76 20.35 16.57 C20.61 19.44 20.88 22.3 21.13 25.17 C21.38 27.93 21.64 30.69 21.9 33.45 C22.01 34.74 22.01 34.74 22.13 36.07 C22.33 38.13 22.62 40.18 22.94 42.23 C23.6 42.56 24.26 42.89 24.94 43.23 C26.51 40.09 26.23 36.68 26.37 33.23 C26.65 27.55 27.17 22.19 28.47 16.65 C29.23 12.7 29.39 8.71 29.59 4.7 C29.94 2.23 29.94 2.23 31.94 0.23 C33.98 -0.02 33.98 -0.02 36.47 -0 C37.36 -0 38.25 0 39.17 0 C40.11 0.01 41.04 0.03 42 0.04 C42.94 0.04 43.87 0.04 44.84 0.04 C51.8 0.09 51.8 0.09 52.94 1.23 C52.85 10.59 51.13 19.85 49.53 29.05 C48.84 33.01 48.17 36.96 47.5 40.92 C47.29 42.11 47.29 42.11 47.09 43.32 C45.68 51.66 44.44 60.02 43.23 68.4 C40.21 89.39 40.21 89.39 37.94 95.23 C33.83 95.29 29.73 95.32 25.62 95.35 C24.46 95.37 23.29 95.39 22.09 95.4 C20.41 95.41 20.41 95.41 18.7 95.42 C17.15 95.44 17.15 95.44 15.57 95.45 C12.94 95.23 12.94 95.23 9.94 93.23 C9.31 91.34 9.31 91.34 8.94 89.01 C8.8 88.13 8.65 87.25 8.51 86.35 C8.36 85.39 8.22 84.43 8.07 83.44 C7.83 81.94 7.83 81.94 7.59 80.41 C7.06 77.14 6.56 73.87 6.06 70.6 C5.71 68.36 5.36 66.12 5 63.88 C4.3 59.41 3.6 54.95 2.91 50.48 C2.07 45.05 1.21 39.63 0.34 34.21 C-0.11 31.4 -0.55 28.6 -1 25.79 C-1.2 24.54 -1.4 23.29 -1.6 22 C-2.41 16.84 -3.18 11.68 -3.82 6.5 C-3.91 5.72 -4.01 4.94 -4.11 4.13 C-4.04 1.2 -2.83 0.31 0 0 Z " fill="#100606" transform="translate(773.06298828125,620.77294921875)"/>
<path d="M0 0 C0.8 0.01 1.6 0.02 2.43 0.03 C3.68 0.07 3.68 0.07 4.96 0.11 C6.22 0.13 6.22 0.13 7.52 0.15 C9.6 0.18 11.69 0.24 13.77 0.29 C15.56 3.87 14.97 8.46 14.94 12.44 C14.95 14.86 14.95 14.86 15.77 18.29 C17.75 19.28 19.73 20.27 21.77 21.29 C21.77 26.57 21.77 31.85 21.77 37.29 C19.79 37.95 17.81 38.61 15.77 39.29 C15.77 57.44 15.77 75.59 15.77 94.29 C17.42 94.62 19.07 94.95 20.77 95.29 C22.27 98.3 21.86 101.08 21.83 104.42 C21.82 105.7 21.81 106.98 21.8 108.3 C21.79 109.29 21.78 110.28 21.77 111.29 C14.41 112.65 5.46 114.23 -1.42 110.54 C-5.61 107.19 -6.29 104.83 -7.01 99.61 C-7.51 94.33 -7.48 89.01 -7.55 83.7 C-7.57 82.4 -7.59 81.1 -7.61 79.76 C-7.66 76.33 -7.71 72.9 -7.76 69.46 C-7.81 65.95 -7.87 62.44 -7.92 58.92 C-8.03 52.05 -8.13 45.17 -8.23 38.29 C-9.88 37.63 -11.53 36.97 -13.23 36.29 C-13.31 34.19 -13.37 32.09 -13.42 29.98 C-13.45 28.81 -13.49 27.64 -13.52 26.43 C-13.23 23.29 -13.23 23.29 -11.84 21.44 C-10.23 20.29 -10.23 20.29 -8.23 19.29 C-7.93 15.92 -7.81 12.58 -7.75 9.2 C-7.55 3.72 -7.55 3.72 -5.97 1.58 C-3.8 -0.02 -2.67 -0.06 0 0 Z " fill="#100606" transform="translate(712.23046875,604.70703125)"/>
<path d="M0 0 C0.87 -0.03 1.74 -0.06 2.63 -0.09 C5.03 -0.09 7.16 -0.04 9.5 0.5 C11.47 2.97 11.47 2.97 12.5 5.5 C13.16 5.83 13.82 6.16 14.5 6.5 C14.83 5.51 15.16 4.52 15.5 3.5 C19.98 0.65 21.07 0.41 26.5 1.5 C26.5 7.11 26.5 12.72 26.5 18.5 C19.56 20.44 19.56 20.44 17.38 21.04 C14.17 21.76 14.17 21.76 11.5 23.5 C11.38 25.74 11.32 27.98 11.29 30.22 C11.28 31.28 11.28 31.28 11.26 32.35 C11.23 34.68 11.21 37.02 11.18 39.35 C11.16 40.96 11.14 42.57 11.12 44.19 C11.07 48.44 11.02 52.69 10.97 56.95 C10.92 61.28 10.86 65.62 10.81 69.96 C10.7 78.47 10.6 86.98 10.5 95.5 C6.85 95.53 3.21 95.55 -0.44 95.56 C-2 95.58 -2 95.58 -3.59 95.59 C-4.58 95.59 -5.57 95.59 -6.59 95.6 C-7.96 95.61 -7.96 95.61 -9.37 95.61 C-11.5 95.5 -11.5 95.5 -12.5 94.5 C-12.61 91.69 -12.66 88.9 -12.66 86.08 C-12.67 85.2 -12.67 84.31 -12.68 83.41 C-12.69 80.47 -12.7 77.54 -12.7 74.6 C-12.71 72.57 -12.71 70.54 -12.72 68.51 C-12.73 64.24 -12.74 59.98 -12.74 55.71 C-12.75 50.24 -12.77 44.76 -12.8 39.29 C-12.82 35.09 -12.82 30.89 -12.82 26.69 C-12.83 24.68 -12.83 22.66 -12.85 20.64 C-12.86 17.82 -12.86 15 -12.86 12.18 C-12.87 11.34 -12.87 10.5 -12.88 9.64 C-12.84 3.92 -12.84 3.92 -11.1 1.79 C-7.97 -0.73 -3.85 -0.01 0 0 Z " fill="#FDFDFD" transform="translate(589.5,502.5)"/>
<path d="M0 0 C2 2 2 2 2.2 5.91 C2.18 7.48 2.16 9.05 2.12 10.62 C2.12 11.43 2.11 12.23 2.1 13.05 C2.07 15.04 2.04 17.02 2 19 C1.17 19.19 0.34 19.39 -0.52 19.59 C-1.61 19.85 -2.69 20.11 -3.81 20.38 C-4.89 20.63 -5.97 20.89 -7.08 21.15 C-10.16 21.89 -10.16 21.89 -13 24 C-13.48 27.11 -13.48 27.11 -13.43 30.84 C-13.44 31.54 -13.45 32.24 -13.46 32.97 C-13.49 35.29 -13.5 37.62 -13.51 39.95 C-13.53 41.56 -13.55 43.17 -13.57 44.78 C-13.61 49.02 -13.64 53.27 -13.67 57.51 C-13.7 61.84 -13.75 66.17 -13.79 70.5 C-13.88 79 -13.94 87.5 -14 96 C-17.46 96.03 -20.92 96.05 -24.38 96.06 C-25.36 96.07 -26.34 96.08 -27.36 96.09 C-28.77 96.09 -28.77 96.09 -30.21 96.1 C-31.08 96.1 -31.95 96.11 -32.85 96.11 C-35 96 -35 96 -37 95 C-37.05 83.04 -37.08 71.08 -37.1 59.12 C-37.11 53.56 -37.13 48.01 -37.15 42.46 C-37.17 37.1 -37.18 31.75 -37.19 26.39 C-37.19 24.34 -37.2 22.3 -37.21 20.25 C-37.23 17.39 -37.23 14.53 -37.23 11.67 C-37.24 10.39 -37.24 10.39 -37.25 9.09 C-37.23 3.23 -37.23 3.23 -35 1 C-32.94 0.77 -32.94 0.77 -30.43 0.8 C-29.53 0.81 -28.64 0.82 -27.71 0.82 C-26.31 0.85 -26.31 0.85 -24.88 0.88 C-23.93 0.88 -22.99 0.89 -22.01 0.9 C-19.67 0.93 -17.34 0.96 -15 1 C-14.01 2.98 -13.02 4.96 -12 7 C-10.98 6.1 -10.98 6.1 -9.94 5.19 C-6.68 2.76 -3.76 1.47 0 0 Z " fill="#100606" transform="translate(567,620)"/>
<path d="M0 0 C0.78 0 1.56 0.01 2.36 0.01 C3.21 0.01 4.05 0.02 4.93 0.02 C5.81 0.03 6.7 0.04 7.61 0.06 C8.5 0.06 9.38 0.06 10.3 0.06 C16.9 0.1 16.9 0.1 18.04 1.24 C18.14 4.16 18.17 7.06 18.16 9.99 C18.16 10.9 18.16 11.82 18.16 12.76 C18.16 15.81 18.15 18.86 18.14 21.9 C18.14 24.01 18.14 26.12 18.14 28.22 C18.13 33.78 18.12 39.33 18.11 44.89 C18.1 50.55 18.1 56.21 18.09 61.88 C18.08 73 18.07 84.12 18.04 95.24 C14.57 95.27 11.09 95.29 7.61 95.31 C6.12 95.32 6.12 95.32 4.6 95.33 C3.65 95.33 2.71 95.34 1.74 95.34 C0.86 95.35 -0.01 95.35 -0.91 95.36 C-2.96 95.24 -2.96 95.24 -3.96 94.24 C-4.06 91.39 -4.1 88.57 -4.1 85.72 C-4.1 84.82 -4.11 83.93 -4.11 83.01 C-4.12 80.03 -4.12 77.06 -4.12 74.09 C-4.13 72.03 -4.13 69.98 -4.13 67.92 C-4.14 63.6 -4.14 59.29 -4.14 54.97 C-4.14 49.43 -4.15 43.88 -4.17 38.34 C-4.18 34.09 -4.18 29.84 -4.18 25.59 C-4.19 23.55 -4.19 21.51 -4.2 19.46 C-4.21 16.61 -4.2 13.75 -4.2 10.9 C-4.2 10.05 -4.21 9.2 -4.22 8.32 C-4.17 0.52 -4.17 0.52 0 0 Z " fill="#100606" transform="translate(744.955322265625,620.757080078125)"/>
<path d="M0 0 C4.53 3.68 8.02 9 9.86 14.51 C11.14 31.97 11.14 31.97 6.42 37.93 C-0.67 45.07 -5.41 46.84 -15.52 46.9 C-22.81 46.76 -28.17 44.94 -33.75 40.12 C-38.18 35.38 -40.26 29.46 -40.52 23.07 C-40.18 15.07 -37.6 9.06 -32.11 3.23 C-23.33 -4.48 -10.25 -5.71 0 0 Z " fill="#100606" transform="translate(931.14453125,669.4921875)"/>
<path d="M0 0 C2 0.75 2 0.75 4 3.75 C4.25 5.77 4.25 5.77 4.24 8.1 C4.25 8.97 4.25 9.85 4.25 10.75 C4.25 11.69 4.24 12.63 4.23 13.6 C4.23 15.05 4.23 15.05 4.23 16.53 C4.23 18.58 4.22 20.62 4.21 22.67 C4.19 25.8 4.19 28.94 4.19 32.08 C4.18 34.07 4.17 36.05 4.17 38.04 C4.17 38.98 4.17 39.92 4.16 40.89 C4.16 41.76 4.15 42.63 4.15 43.53 C4.14 44.3 4.14 45.07 4.13 45.86 C4 47.75 4 47.75 3 49.75 C-2.75 49.88 -2.75 49.88 -5 48.75 C-5.92 46.05 -6.13 43.53 -6.15 40.69 C-6.15 39.9 -6.16 39.11 -6.16 38.3 C-6.17 37.46 -6.17 36.62 -6.17 35.75 C-6.17 34.88 -6.17 34 -6.18 33.11 C-6.18 31.26 -6.19 29.42 -6.19 27.58 C-6.19 24.76 -6.21 21.94 -6.22 19.12 C-6.23 17.33 -6.23 15.54 -6.23 13.75 C-6.24 12.91 -6.24 12.07 -6.25 11.2 C-6.25 10.02 -6.25 10.02 -6.24 8.81 C-6.24 8.12 -6.25 7.43 -6.25 6.72 C-5.95 4.36 -5.24 2.77 -4 0.75 C-2 -0.25 -2 -0.25 0 0 Z " fill="#FB5857" transform="translate(540,520.25)"/>
<path d="M0 0 C1.19 -0 1.19 -0 2.41 -0.01 C3.25 -0 4.08 0.01 4.94 0.02 C5.77 0.01 6.6 0 7.46 -0.01 C8.26 -0.01 9.05 -0 9.88 0 C10.61 0 11.34 0 12.09 0.01 C13.94 0.27 13.94 0.27 15.94 2.27 C16.08 4.85 16.12 7.32 16.06 9.89 C16.05 10.6 16.04 11.3 16.04 12.03 C16.01 13.78 15.98 15.52 15.94 17.27 C12.65 17.29 9.35 17.31 6.06 17.33 C5.13 17.34 4.19 17.34 3.22 17.35 C1.88 17.36 1.88 17.36 0.51 17.36 C-0.73 17.37 -0.73 17.37 -2 17.38 C-4.06 17.27 -4.06 17.27 -6.06 16.27 C-6.12 13.97 -6.16 11.68 -6.19 9.39 C-6.21 8.11 -6.23 6.84 -6.26 5.52 C-5.97 0.73 -4.44 0.01 0 0 Z " fill="#100606" transform="translate(747.0625,597.734375)"/>
<path d="M0 0 C3 2 3 2 3.51 4.21 C3.58 5.13 3.64 6.05 3.71 7 C3.79 8.04 3.87 9.08 3.95 10.15 C4.02 11.28 4.09 12.41 4.17 13.57 C4.25 14.72 4.34 15.87 4.42 17.06 C4.69 20.75 4.94 24.44 5.19 28.12 C5.37 30.62 5.54 33.12 5.72 35.61 C6.16 41.74 6.59 47.87 7 54 C5.52 54.03 4.04 54.05 2.56 54.06 C1.74 54.07 0.92 54.09 0.07 54.1 C-2 54 -2 54 -3 53 C-2.96 51.22 -2.84 49.43 -2.7 47.66 C-2.61 46.52 -2.52 45.39 -2.43 44.22 C-2.33 42.99 -2.23 41.77 -2.12 40.5 C-1.09 27.01 -0.44 13.52 0 0 Z " fill="#FB5857" transform="translate(409,508)"/>
<path d="M0 0 C0.05 4.09 0.09 8.19 0.11 12.28 C0.12 13.67 0.13 15.07 0.15 16.46 C0.18 18.46 0.19 20.46 0.2 22.46 C0.21 23.67 0.22 24.87 0.23 26.11 C0 29 0 29 -2 31 C-4.62 30.67 -6.64 30.18 -9 29 C-9.09 25.27 -9.14 21.54 -9.19 17.81 C-9.21 16.76 -9.24 15.7 -9.26 14.62 C-9.27 13.59 -9.28 12.57 -9.29 11.52 C-9.32 10.11 -9.32 10.11 -9.34 8.68 C-8.93 5.47 -7.88 3.61 -6 1 C-2.57 -1.29 -2.57 -1.29 0 0 Z " fill="#FB5857" transform="translate(669,668)"/>
<path d="M0 0 C3 1 3 1 5 4 C5.23 5.99 5.23 5.99 5.2 8.23 C5.19 9.43 5.19 9.43 5.18 10.66 C5.16 11.5 5.14 12.33 5.12 13.19 C5.12 14.03 5.11 14.88 5.1 15.75 C5.07 17.83 5.04 19.92 5 22 C3.54 22.03 2.08 22.05 0.62 22.06 C-0.19 22.07 -1 22.09 -1.84 22.1 C-4 22 -4 22 -6 21 C-6.57 6.89 -6.57 6.89 -3 2 C-2.01 1.34 -1.02 0.68 0 0 Z " fill="#FB5857" transform="translate(603,637)"/>
<path d="M0 0 C3.74 1.47 3.74 1.47 5 4 C5.08 5.38 5.11 6.75 5.1 8.13 C5.09 8.94 5.09 9.74 5.09 10.57 C5.08 11.42 5.07 12.26 5.06 13.12 C5.06 13.97 5.05 14.82 5.05 15.7 C5.04 17.8 5.02 19.9 5 22 C3.52 22.03 2.04 22.05 0.56 22.06 C-0.67 22.08 -0.67 22.08 -1.93 22.1 C-4 22 -4 22 -5 21 C-5.15 18.57 -5.23 16.18 -5.25 13.75 C-5.27 13.08 -5.29 12.41 -5.31 11.72 C-5.35 7.29 -4.73 4.52 -2 1 C-1.34 0.67 -0.68 0.34 0 0 Z " fill="#FB5857" transform="translate(859,637)"/>
<path d="M0 0 C2.44 1.88 2.44 1.88 4 4 C4 4.99 4 5.98 4 7 C3.43 6.84 2.86 6.68 2.27 6.51 C-3.39 5.24 -9.36 5.84 -15 7 C-15.33 6.34 -15.66 5.68 -16 5 C-13.1 -0.8 -5.58 -1.72 0 0 Z " fill="#F8C6C6" transform="translate(922,702)"/>
<path d="M0 0 C7.59 1.03 7.59 1.03 10 3 C10.94 6.44 10.94 6.44 11 10 C9.56 11.94 9.56 11.94 8 13 C6.12 12.38 6.12 12.38 4 11 C3.33 9 2.67 7 2 5 C-0 3.58 -0 3.58 -2 3 C-1.34 2.01 -0.68 1.02 0 0 Z " fill="#F25554" transform="translate(902,685)"/>
<path d="M0 0 C0 1.32 0 2.64 0 4 C-0.99 4.66 -1.98 5.32 -3 6 C-4.2 8.55 -4.2 8.55 -5 11 C-9 11 -9 11 -11 10 C-11 8.02 -11 6.04 -11 4 C-10.01 3.67 -9.02 3.34 -8 3 C-8 2.34 -8 1.68 -8 1 C-4.93 -0.86 -3.4 -1.22 0 0 Z " fill="#F05453" transform="translate(932,686)"/>
<path d="M0 0 C0.66 0.33 1.32 0.66 2 1 C2.59 3.65 2.74 6.29 3 9 C-1 9 -1 9 -3 8 C-3.19 5.12 -3.19 5.12 -3 2 C-2.01 1.34 -1.02 0.68 0 0 Z " fill="#FCF9F9" transform="translate(924,688)"/>
<path d="M0 0 C0.99 0.33 1.98 0.66 3 1 C3.33 2.98 3.66 4.96 4 7 C2.02 7.99 2.02 7.99 0 9 C-1.56 6.62 -1.56 6.62 -3 4 C-2 2 -2 2 0 0 Z " fill="#FCF8F8" transform="translate(908,689)"/>
<path d="M0 0 C6.33 0.49 6.33 0.49 9.44 2.88 C11 5 11 5 11 8 C9.68 7.67 8.36 7.34 7 7 C7.33 6.34 7.66 5.68 8 5 C3.54 4.01 3.54 4.01 -1 3 C-0.67 2.01 -0.34 1.02 0 0 Z " fill="#FB5857" transform="translate(915,701)"/>
</svg>
